<svg width="141" height="141" viewBox="0 0 141 141" fill="none" xmlns="http://www.w3.org/2000/svg">
<g filter="url(#filter0_di)">
<path d="M70.5 133C107.227 133 137 103.227 137 66.5C137 29.7731 107.227 0 70.5 0C33.7731 0 4 29.7731 4 66.5C4 103.227 33.7731 133 70.5 133Z" fill="#C3A634"/>
<path fill-rule="evenodd" clip-rule="evenodd" d="M59.062 60.7228H76.9921V70.224H59.062V90.2488H70.3712C74.8474 90.2488 78.5091 89.6462 81.3603 88.4325C84.2115 87.2231 86.4475 85.5481 88.0726 83.4035C89.7347 81.1733 90.8662 78.5933 91.381 75.8599C91.9815 72.7766 92.2739 69.6412 92.2538 66.5C92.2739 63.3588 91.9815 60.2234 91.381 57.1401C90.8668 54.4065 89.7353 51.8264 88.0726 49.5965C86.4475 47.4519 84.2073 45.7769 81.3603 44.5675C78.5091 43.3538 74.8474 42.7512 70.3712 42.7512H59.062V60.727V60.7228ZM47.5658 70.224H41.4062V60.727H47.5658V33.25H74.7851C79.8142 33.25 84.1658 34.1228 87.844 35.856C91.5223 37.5974 94.5231 39.9707 96.8548 42.9839C99.1823 45.9931 100.915 49.5176 102.05 53.5533C103.185 57.589 103.75 61.9073 103.75 66.5C103.779 70.8733 103.205 75.2297 102.046 79.4467C100.915 83.4783 99.1823 87.0069 96.8506 90.0161C94.5231 93.0293 91.5223 95.4026 87.844 97.144C84.1658 98.8813 79.81 99.75 74.7851 99.75H47.5658V70.224V70.224Z" fill="white"/>
</g>
<defs>
<filter id="filter0_di" x="0" y="0" width="141" height="141" filterUnits="userSpaceOnUse" color-interpolation-filters="sRGB">
<feFlood flood-opacity="0" result="BackgroundImageFix"/>
<feColorMatrix in="SourceAlpha" type="matrix" values="0 0 0 0 0 0 0 0 0 0 0 0 0 0 0 0 0 0 127 0"/>
<feOffset dy="4"/>
<feGaussianBlur stdDeviation="2"/>
<feColorMatrix type="matrix" values="0 0 0 0 0 0 0 0 0 0 0 0 0 0 0 0 0 0 0.25 0"/>
<feBlend mode="normal" in2="BackgroundImageFix" result="effect1_dropShadow"/>
<feBlend mode="normal" in="SourceGraphic" in2="effect1_dropShadow" result="shape"/>
<feColorMatrix in="SourceAlpha" type="matrix" values="0 0 0 0 0 0 0 0 0 0 0 0 0 0 0 0 0 0 127 0" result="hardAlpha"/>
<feOffset dx="-23" dy="34"/>
<feGaussianBlur stdDeviation="2"/>
<feComposite in2="hardAlpha" operator="arithmetic" k2="-1" k3="1"/>
<feColorMatrix type="matrix" values="0 0 0 0 0 0 0 0 0 0 0 0 0 0 0 0 0 0 0.25 0"/>
<feBlend mode="normal" in2="shape" result="effect2_innerShadow"/>
</filter>
</defs>
</svg>
