<svg width="141" height="141" viewBox="0 0 141 141" fill="none" xmlns="http://www.w3.org/2000/svg">
<g clip-path="url(#clip0)" filter="url(#filter0_di)">
<path d="M70.5002 0C52.9282 0.0512585 36.0949 7.07424 23.6968 19.5267C11.2987 31.9792 4.34944 48.8431 4.37507 66.4151C4.4007 83.9871 11.3991 100.831 23.8335 113.247C36.2679 125.663 53.1216 132.637 70.6936 132.637C88.2657 132.637 105.119 125.663 117.554 113.247C129.988 100.831 136.987 83.9871 137.012 66.4151C137.038 48.8431 130.089 31.9792 117.69 19.5267C105.292 7.07424 88.4591 0.0512585 70.8871 0L70.5002 0Z" fill="#E53A11"/>
<path d="M71.7088 67.987L65.8508 87.6589H97.0211C97.2272 87.6485 97.4331 87.6814 97.6257 87.7556C97.8181 87.8278 97.9946 87.9366 98.1456 88.076C98.2955 88.2189 98.4165 88.3893 98.5023 88.5778C98.593 88.7667 98.6425 88.9728 98.6474 89.1823V89.6962L95.933 99.0485C95.8167 99.492 95.5495 99.8811 95.1773 100.149C94.8086 100.419 94.3585 100.556 93.9017 100.536H46.203L54.1951 73.3311L45.2539 76.0395L47.2852 69.8066L56.2264 67.0922L67.477 28.8245C67.5988 28.3836 67.8676 27.9976 68.2387 27.7303C68.6057 27.4598 69.0525 27.3193 69.5083 27.3313H81.5992C81.8055 27.326 82.0108 27.3609 82.2037 27.434C82.3986 27.5048 82.5774 27.6138 82.7297 27.7544C82.8823 27.895 83.0038 28.0659 83.0864 28.2562C83.173 28.4463 83.2203 28.6519 83.2254 28.8608V29.3807L73.7401 61.6332L82.6874 58.9188L80.777 65.4116L71.7088 67.987Z" fill="white"/>
</g>
<defs>
<filter id="filter0_di" x="0" y="0" width="141" height="141" filterUnits="userSpaceOnUse" color-interpolation-filters="sRGB">
<feFlood flood-opacity="0" result="BackgroundImageFix"/>
<feColorMatrix in="SourceAlpha" type="matrix" values="0 0 0 0 0 0 0 0 0 0 0 0 0 0 0 0 0 0 127 0"/>
<feOffset dy="4"/>
<feGaussianBlur stdDeviation="2"/>
<feColorMatrix type="matrix" values="0 0 0 0 0 0 0 0 0 0 0 0 0 0 0 0 0 0 0.25 0"/>
<feBlend mode="normal" in2="BackgroundImageFix" result="effect1_dropShadow"/>
<feBlend mode="normal" in="SourceGraphic" in2="effect1_dropShadow" result="shape"/>
<feColorMatrix in="SourceAlpha" type="matrix" values="0 0 0 0 0 0 0 0 0 0 0 0 0 0 0 0 0 0 127 0" result="hardAlpha"/>
<feOffset dx="-23" dy="45"/>
<feGaussianBlur stdDeviation="2"/>
<feComposite in2="hardAlpha" operator="arithmetic" k2="-1" k3="1"/>
<feColorMatrix type="matrix" values="0 0 0 0 0 0 0 0 0 0 0 0 0 0 0 0 0 0 0.25 0"/>
<feBlend mode="normal" in2="shape" result="effect2_innerShadow"/>
</filter>
<clipPath id="clip0">
<rect width="133" height="133" fill="white" transform="translate(4)"/>
</clipPath>
</defs>
</svg>
