<svg width="141" height="141" viewBox="0 0 141 141" fill="none" xmlns="http://www.w3.org/2000/svg">
<g filter="url(#filter0_di)">
<path d="M70.5 133C107.227 133 137 103.227 137 66.5C137 29.7731 107.227 0 70.5 0C33.7731 0 4 29.7731 4 66.5C4 103.227 33.7731 133 70.5 133Z" fill="#E53A11"/>
<path d="M72.5701 16.625V53.4909L103.729 67.4144L72.5701 16.625Z" fill="white" fill-opacity="0.602"/>
<path d="M72.5698 16.625L41.4062 67.4144L72.5698 53.4909V16.625Z" fill="white"/>
<path d="M72.5701 91.3053V116.355L103.75 73.2173L72.5701 91.3053Z" fill="white" fill-opacity="0.602"/>
<path d="M72.5698 116.355V91.3011L41.4062 73.2173L72.5698 116.355Z" fill="white"/>
<path d="M72.5701 85.5068L103.729 67.4146L72.5701 53.4995V85.5068Z" fill="white" fill-opacity="0.2"/>
<path d="M41.4062 67.4146L72.5698 85.5068V53.4995L41.4062 67.4146Z" fill="white" fill-opacity="0.602"/>
</g>
<defs>
<filter id="filter0_di" x="0" y="0" width="141" height="141" filterUnits="userSpaceOnUse" color-interpolation-filters="sRGB">
<feFlood flood-opacity="0" result="BackgroundImageFix"/>
<feColorMatrix in="SourceAlpha" type="matrix" values="0 0 0 0 0 0 0 0 0 0 0 0 0 0 0 0 0 0 127 0"/>
<feOffset dy="4"/>
<feGaussianBlur stdDeviation="2"/>
<feColorMatrix type="matrix" values="0 0 0 0 0 0 0 0 0 0 0 0 0 0 0 0 0 0 0.25 0"/>
<feBlend mode="normal" in2="BackgroundImageFix" result="effect1_dropShadow"/>
<feBlend mode="normal" in="SourceGraphic" in2="effect1_dropShadow" result="shape"/>
<feColorMatrix in="SourceAlpha" type="matrix" values="0 0 0 0 0 0 0 0 0 0 0 0 0 0 0 0 0 0 127 0" result="hardAlpha"/>
<feOffset dx="-23" dy="45"/>
<feGaussianBlur stdDeviation="2"/>
<feComposite in2="hardAlpha" operator="arithmetic" k2="-1" k3="1"/>
<feColorMatrix type="matrix" values="0 0 0 0 0 0 0 0 0 0 0 0 0 0 0 0 0 0 0.25 0"/>
<feBlend mode="normal" in2="shape" result="effect2_innerShadow"/>
</filter>
</defs>
</svg>
