<svg width="141" height="141" viewBox="0 0 141 141" fill="none" xmlns="http://www.w3.org/2000/svg">
<g filter="url(#filter0_di)">
<path d="M70.5 133C107.227 133 137 103.227 137 66.5C137 29.7731 107.227 0 70.5 0C33.7731 0 4 29.7731 4 66.5C4 103.227 33.7731 133 70.5 133Z" fill="#E53A11"/>
<path d="M83.3262 33.2666H53.0853L50.5833 47.2607L77.8566 47.3023C91.2854 47.3023 95.2713 52.1775 95.1424 60.2698C95.0842 64.4177 93.2763 71.4335 92.5115 73.6945C90.4459 79.7626 86.1899 86.6703 70.2382 86.6495L43.7296 86.6329L41.2275 100.644H71.3894C82.0253 100.644 86.5556 99.4009 91.3394 97.1939C101.955 92.2978 108.276 81.8116 110.816 68.1251C114.581 47.7594 109.885 33.2666 83.322 33.2666H83.3262Z" fill="white"/>
<path d="M69.6978 65.6604C70.6828 61.5665 70.9946 59.9248 70.9946 59.9248H40.0471C32.1336 59.9248 31.0031 65.0786 30.2509 68.1957C29.2658 72.273 28.9541 73.9355 28.9541 73.9355H59.9057C67.815 73.9355 68.9455 68.7818 69.6978 65.6604V65.6604Z" fill="white"/>
</g>
<defs>
<filter id="filter0_di" x="0" y="0" width="141" height="141" filterUnits="userSpaceOnUse" color-interpolation-filters="sRGB">
<feFlood flood-opacity="0" result="BackgroundImageFix"/>
<feColorMatrix in="SourceAlpha" type="matrix" values="0 0 0 0 0 0 0 0 0 0 0 0 0 0 0 0 0 0 127 0"/>
<feOffset dy="4"/>
<feGaussianBlur stdDeviation="2"/>
<feColorMatrix type="matrix" values="0 0 0 0 0 0 0 0 0 0 0 0 0 0 0 0 0 0 0.25 0"/>
<feBlend mode="normal" in2="BackgroundImageFix" result="effect1_dropShadow"/>
<feBlend mode="normal" in="SourceGraphic" in2="effect1_dropShadow" result="shape"/>
<feColorMatrix in="SourceAlpha" type="matrix" values="0 0 0 0 0 0 0 0 0 0 0 0 0 0 0 0 0 0 127 0" result="hardAlpha"/>
<feOffset dx="-23" dy="45"/>
<feGaussianBlur stdDeviation="2"/>
<feComposite in2="hardAlpha" operator="arithmetic" k2="-1" k3="1"/>
<feColorMatrix type="matrix" values="0 0 0 0 0 0 0 0 0 0 0 0 0 0 0 0 0 0 0.25 0"/>
<feBlend mode="normal" in2="shape" result="effect2_innerShadow"/>
</filter>
</defs>
</svg>
