<svg width="133" height="133" viewBox="0 0 133 133" fill="none" xmlns="http://www.w3.org/2000/svg">
<g filter="url(#filter0_i)">
<g clip-path="url(#clip0)">
<path d="M66.5 133.139C79.6525 133.139 92.5096 129.239 103.445 121.932C114.381 114.625 122.905 104.239 127.938 92.0876C132.971 79.9364 134.288 66.5654 131.722 53.6657C129.156 40.7659 122.823 28.9168 113.523 19.6166C104.222 10.3164 92.3732 3.98289 79.4735 1.41697C66.5738 -1.14895 53.2028 0.167973 41.0516 5.2012C28.9003 10.2344 18.5144 18.7579 11.2073 29.6938C3.90016 40.6296 0 53.4867 0 66.6392C0 84.2761 7.00623 101.191 19.4774 113.662C31.9486 126.133 48.8631 133.139 66.5 133.139V133.139Z" fill="#E53A11"/>
<path d="M98.5411 37.2461L87.7983 42.687L35.9343 69.1057C35.2038 63.4334 36.062 57.6697 38.4132 52.4562C40.7645 47.2428 44.5165 42.7842 49.2517 39.5769C53.9868 36.3696 59.5192 34.5394 65.2329 34.2901C70.9466 34.0409 76.6173 35.3823 81.6138 38.165L87.7499 35.0637L88.6688 34.5982C83.0398 30.5118 76.3909 28.0608 69.4564 27.5159C62.5219 26.971 55.5718 28.3533 49.3736 31.5103C43.1754 34.6672 37.9704 39.4759 34.3334 45.4053C30.6965 51.3346 28.7692 58.1538 28.7644 65.1096C28.7644 66.0709 28.8007 67.026 28.8732 67.9812C28.9756 69.3338 28.6763 70.6866 28.0127 71.8696C27.3491 73.0527 26.3508 74.0134 25.1432 74.6312L21.9028 76.2816V83.9896L31.4486 79.1532L34.5378 77.5754L37.5606 76.0217L92.2538 48.1279L98.402 45.0025L111.097 38.5278V30.8319L98.5411 37.2461Z" fill="black"/>
<path d="M111.097 46.2417L40.6861 82.0912L34.5439 85.2409L21.9028 91.6733V99.3752L34.4592 92.9731L45.196 87.5321L97.1143 61.0591C97.2886 62.4042 97.3754 63.7592 97.3743 65.1156C97.3661 70.5005 95.951 75.7898 93.2692 80.4594C90.5875 85.1291 86.7321 89.0169 82.0851 91.7378C77.4382 94.4586 72.1609 95.918 66.7763 95.9714C61.3916 96.0248 56.0865 94.6703 51.3865 92.0421L51.0117 92.2416L44.3617 95.6391C49.9919 99.7264 56.6425 102.178 63.5786 102.722C70.5147 103.266 77.4662 101.882 83.665 98.7229C89.8639 95.5638 95.0686 90.7524 98.7042 84.8205C102.34 78.8885 104.265 72.067 104.266 65.1096C104.266 64.1423 104.23 63.169 104.157 62.2138C104.052 60.8615 104.349 59.5083 105.012 58.3248C105.675 57.1413 106.673 56.1806 107.881 55.5638L111.128 53.9134L111.097 46.2417Z" fill="black"/>
</g>
<path d="M0 0V-1H-1V0H0ZM133 0H134V-1H133V0ZM133 133V134H134V133H133ZM0 133H-1V134H0V133ZM0 1H133V-1H0V1ZM132 0V133H134V0H132ZM133 132H0V134H133V132ZM1 133V0H-1V133H1Z" fill="black"/>
</g>
<defs>
<filter id="filter0_i" x="-4" y="0" width="137" height="137" filterUnits="userSpaceOnUse" color-interpolation-filters="sRGB">
<feFlood flood-opacity="0" result="BackgroundImageFix"/>
<feBlend mode="normal" in="SourceGraphic" in2="BackgroundImageFix" result="shape"/>
<feColorMatrix in="SourceAlpha" type="matrix" values="0 0 0 0 0 0 0 0 0 0 0 0 0 0 0 0 0 0 127 0" result="hardAlpha"/>
<feOffset dx="-23" dy="45"/>
<feGaussianBlur stdDeviation="2"/>
<feComposite in2="hardAlpha" operator="arithmetic" k2="-1" k3="1"/>
<feColorMatrix type="matrix" values="0 0 0 0 0 0 0 0 0 0 0 0 0 0 0 0 0 0 0.25 0"/>
<feBlend mode="normal" in2="shape" result="effect1_innerShadow"/>
</filter>
<clipPath id="clip0">
<path d="M0 0H133V133H0V0Z" fill="white"/>
</clipPath>
</defs>
</svg>
