<svg width="141" height="141" viewBox="0 0 141 141" fill="none" xmlns="http://www.w3.org/2000/svg">
<g filter="url(#filter0_di)">
<path d="M70.5 133C107.227 133 137 103.227 137 66.5C137 29.7731 107.227 0 70.5 0C33.7731 0 4 29.7731 4 66.5C4 103.227 33.7731 133 70.5 133Z" fill="#E53A11"/>
<path d="M100.379 58.2706C101.684 49.5591 95.0466 44.875 85.9777 41.7495L88.9203 29.9458L81.7383 28.1586L78.8705 39.6506C76.9836 39.1768 75.0468 38.7362 73.1141 38.2957L76.0027 26.7288L68.8207 24.9375L65.8781 36.7371C64.3153 36.3797 62.7775 36.0305 61.2896 35.6565L61.2979 35.6191L51.3894 33.1461L49.4775 40.8185C49.4775 40.8185 54.81 42.0405 54.6978 42.1153C57.6071 42.8426 58.1308 44.767 58.0435 46.2965L54.6936 59.7419C54.8931 59.7918 55.1508 59.8666 55.4417 59.9788L54.6811 59.7918L49.9846 78.6279C49.6271 79.5091 48.7252 80.8349 46.6887 80.332C46.7635 80.4359 41.4684 79.0311 41.4684 79.0311L37.9023 87.2522L47.2539 89.5838C48.9912 90.0202 50.6953 90.4774 52.3702 90.9055L49.3985 102.842L56.5764 104.629L59.519 92.8257C61.4808 93.3535 63.3843 93.844 65.2463 94.3095L62.312 106.063L69.494 107.851L72.4657 95.9387C84.7183 98.2579 93.9286 97.3227 97.8064 86.2422C100.932 77.3229 97.6526 72.1733 91.2063 68.8192C95.9028 67.7386 99.4356 64.6505 100.379 58.2706V58.2706ZM83.9619 81.2879C81.7466 90.2114 66.7218 85.386 61.8507 84.1765L65.7991 68.362C70.6702 69.5798 86.2853 71.9863 83.9619 81.2879ZM86.1855 58.1418C84.1614 66.2589 71.6594 62.1318 67.6071 61.1218L71.1814 46.7827C75.2338 47.7927 88.2969 49.6755 86.1855 58.1418Z" fill="white"/>
</g>
<defs>
<filter id="filter0_di" x="0" y="0" width="141" height="141" filterUnits="userSpaceOnUse" color-interpolation-filters="sRGB">
<feFlood flood-opacity="0" result="BackgroundImageFix"/>
<feColorMatrix in="SourceAlpha" type="matrix" values="0 0 0 0 0 0 0 0 0 0 0 0 0 0 0 0 0 0 127 0"/>
<feOffset dy="4"/>
<feGaussianBlur stdDeviation="2"/>
<feColorMatrix type="matrix" values="0 0 0 0 0 0 0 0 0 0 0 0 0 0 0 0 0 0 0.25 0"/>
<feBlend mode="normal" in2="BackgroundImageFix" result="effect1_dropShadow"/>
<feBlend mode="normal" in="SourceGraphic" in2="effect1_dropShadow" result="shape"/>
<feColorMatrix in="SourceAlpha" type="matrix" values="0 0 0 0 0 0 0 0 0 0 0 0 0 0 0 0 0 0 127 0" result="hardAlpha"/>
<feOffset dx="-23" dy="34"/>
<feGaussianBlur stdDeviation="2"/>
<feComposite in2="hardAlpha" operator="arithmetic" k2="-1" k3="1"/>
<feColorMatrix type="matrix" values="0 0 0 0 0 0 0 0 0 0 0 0 0 0 0 0 0 0 0.25 0"/>
<feBlend mode="normal" in2="shape" result="effect2_innerShadow"/>
</filter>
</defs>
</svg>
