<svg width="141" height="141" viewBox="0 0 141 141" fill="none" xmlns="http://www.w3.org/2000/svg">
<g filter="url(#filter0_di)">
<path d="M70.5 133C107.227 133 137 103.227 137 66.5C137 29.7731 107.227 0 70.5 0C33.7731 0 4 29.7731 4 66.5C4 103.227 33.7731 133 70.5 133Z" fill="#23292F"/>
<path d="M99.8847 33.25H111.896L86.8964 58.0088C82.5255 62.3152 76.6359 64.7291 70.5 64.7291C64.3641 64.7291 58.4745 62.3152 54.1036 58.0088L29.083 33.25H41.1153L60.1094 52.0487C62.8753 54.7788 66.6053 56.3096 70.4917 56.3096C74.3781 56.3096 78.108 54.7788 80.874 52.0487L99.8847 33.25ZM40.9698 102.09H28.9375L54.1036 77.1816C58.4745 72.8752 64.3641 70.4612 70.5 70.4612C76.6359 70.4612 82.5255 72.8752 86.8964 77.1816L112.062 102.086H100.03L80.8906 83.125C78.1247 80.3949 74.3947 78.8642 70.5083 78.8642C66.6219 78.8642 62.892 80.3949 60.126 83.125L40.9657 102.09H40.9698Z" fill="white"/>
</g>
<defs>
<filter id="filter0_di" x="0" y="0" width="141" height="141" filterUnits="userSpaceOnUse" color-interpolation-filters="sRGB">
<feFlood flood-opacity="0" result="BackgroundImageFix"/>
<feColorMatrix in="SourceAlpha" type="matrix" values="0 0 0 0 0 0 0 0 0 0 0 0 0 0 0 0 0 0 127 0"/>
<feOffset dy="4"/>
<feGaussianBlur stdDeviation="2"/>
<feColorMatrix type="matrix" values="0 0 0 0 0 0 0 0 0 0 0 0 0 0 0 0 0 0 0.25 0"/>
<feBlend mode="normal" in2="BackgroundImageFix" result="effect1_dropShadow"/>
<feBlend mode="normal" in="SourceGraphic" in2="effect1_dropShadow" result="shape"/>
<feColorMatrix in="SourceAlpha" type="matrix" values="0 0 0 0 0 0 0 0 0 0 0 0 0 0 0 0 0 0 127 0" result="hardAlpha"/>
<feOffset dx="-23" dy="45"/>
<feGaussianBlur stdDeviation="2"/>
<feComposite in2="hardAlpha" operator="arithmetic" k2="-1" k3="1"/>
<feColorMatrix type="matrix" values="0 0 0 0 0 0 0 0 0 0 0 0 0 0 0 0 0 0 0.25 0"/>
<feBlend mode="normal" in2="shape" result="effect2_innerShadow"/>
</filter>
</defs>
</svg>
