<svg width="141" height="141" viewBox="0 0 141 141" fill="none" xmlns="http://www.w3.org/2000/svg">
<g filter="url(#filter0_di)">
<path d="M70.5 133C107.227 133 137 103.227 137 66.5C137 29.7731 107.227 0 70.5 0C33.7731 0 4 29.7731 4 66.5C4 103.227 33.7731 133 70.5 133Z" fill="#F3BA2F"/>
<path d="M54.3571 59.8666L70.5 43.7238L86.6512 59.8749L96.0443 50.4818L70.5 24.9375L44.964 50.4735L54.3571 59.8666ZM28.9375 66.5L38.3306 57.1069L47.7238 66.5L38.3306 75.8931L28.9375 66.5ZM54.3571 73.1334L70.5 89.2762L86.6512 73.1251L96.0443 82.514L70.5 108.062L44.964 82.5265L44.9515 82.514L54.3571 73.1334ZM93.2762 66.5L102.669 57.1069L112.062 66.5L102.669 75.8931L93.2762 66.5ZM80.0261 66.4917H80.0344V66.5L70.5 76.0344L60.978 66.5166L60.9614 66.5L60.978 66.4875L62.6447 64.8167L63.4552 64.0062L70.5 56.9656L80.0303 66.4958L80.0261 66.4917Z" fill="white"/>
</g>
<defs>
<filter id="filter0_di" x="0" y="0" width="141" height="141" filterUnits="userSpaceOnUse" color-interpolation-filters="sRGB">
<feFlood flood-opacity="0" result="BackgroundImageFix"/>
<feColorMatrix in="SourceAlpha" type="matrix" values="0 0 0 0 0 0 0 0 0 0 0 0 0 0 0 0 0 0 127 0"/>
<feOffset dy="4"/>
<feGaussianBlur stdDeviation="2"/>
<feColorMatrix type="matrix" values="0 0 0 0 0 0 0 0 0 0 0 0 0 0 0 0 0 0 0.25 0"/>
<feBlend mode="normal" in2="BackgroundImageFix" result="effect1_dropShadow"/>
<feBlend mode="normal" in="SourceGraphic" in2="effect1_dropShadow" result="shape"/>
<feColorMatrix in="SourceAlpha" type="matrix" values="0 0 0 0 0 0 0 0 0 0 0 0 0 0 0 0 0 0 127 0" result="hardAlpha"/>
<feOffset dx="-23" dy="45"/>
<feGaussianBlur stdDeviation="2"/>
<feComposite in2="hardAlpha" operator="arithmetic" k2="-1" k3="1"/>
<feColorMatrix type="matrix" values="0 0 0 0 0 0 0 0 0 0 0 0 0 0 0 0 0 0 0.25 0"/>
<feBlend mode="normal" in2="shape" result="effect2_innerShadow"/>
</filter>
</defs>
</svg>
